<svg
  xmlns="http://www.w3.org/2000/svg"
  viewBox="0 0 512 512"
  width="20px"
  height="20px"
  fill="none"
  stroke="#000"
  stroke-width="24"
>
  <path d="M449.4 78.3H94.8L83.3 20.8c-1.8-9.2-9.9-15.9-19.3-15.9H19.6C8.8 4.9 0 13.7 0 24.5s8.8 19.6 19.6 19.6h29.5l56.1 289.4c1.8 9.2 9.9 15.9 19.3 15.9h260.7c8.6 0 16.1-5.7 18.8-14L502.4 97.8c2.6-8.1-3.2-17.1-12.2-17.1zM149.2 342.4c-30.7 0-55.6 24.9-55.6 55.6s24.9 55.6 55.6 55.6 55.6-24.9 55.6-55.6-24.9-55.6-55.6-55.6zm213.6 0c-30.7 0-55.6 24.9-55.6 55.6s24.9 55.6 55.6 55.6 55.6-24.9 55.6-55.6-24.9-55.6-55.6-55.6z" />
</svg>
